<svg width="15" height="15" viewBox="0 0 15 15" fill="none" xmlns="http://www.w3.org/2000/svg">
<path d="M4.5 8.5C5.05228 8.5 5.5 8.05229 5.5 7.5C5.5 6.94771 5.05228 6.5 4.5 6.5C3.94772 6.5 3.5 6.94771 3.5 7.5C3.5 8.05229 3.94772 8.5 4.5 8.5ZM5.5 10.5C5.5 11.0523 5.05228 11.5 4.5 11.5C3.94772 11.5 3.5 11.0523 3.5 10.5C3.5 9.94771 3.94772 9.5 4.5 9.5C5.05228 9.5 5.5 9.94771 5.5 10.5ZM7.5 8.5C8.05229 8.5 8.5 8.05229 8.5 7.5C8.5 6.94771 8.05229 6.5 7.5 6.5C6.94771 6.5 6.5 6.94771 6.5 7.5C6.5 8.05229 6.94771 8.5 7.5 8.5ZM8.5 10.5C8.5 11.0523 8.05229 11.5 7.5 11.5C6.94771 11.5 6.5 11.0523 6.5 10.5C6.5 9.94771 6.94771 9.5 7.5 9.5C8.05229 9.5 8.5 9.94771 8.5 10.5ZM10.5 8.5C11.0523 8.5 11.5 8.05229 11.5 7.5C11.5 6.94771 11.0523 6.5 10.5 6.5C9.94771 6.5 9.5 6.94771 9.5 7.5C9.5 8.05229 9.94771 8.5 10.5 8.5ZM14.5 3C14.5 1.61929 13.3807 0.5 12 0.5H3C1.61929 0.5 0.5 1.61929 0.5 3V12C0.5 13.3807 1.61929 14.5 3 14.5H12C13.3807 14.5 14.5 13.3807 14.5 12V3ZM1.5 4.5H13.5V12C13.5 12.8284 12.8284 13.5 12 13.5H3C2.17157 13.5 1.5 12.8284 1.5 12V4.5ZM3 1.5H12C12.8284 1.5 13.5 2.17157 13.5 3V3.5H1.5V3C1.5 2.17157 2.17157 1.5 3 1.5Z" fill="#414040"/>
</svg>
