<svg width="16" height="17" viewBox="0 0 16 17" fill="none" xmlns="http://www.w3.org/2000/svg">
<path d="M8 11C9.38071 11 10.5 9.88071 10.5 8.5C10.5 7.11929 9.38071 6 8 6C6.61929 6 5.5 7.11929 5.5 8.5C5.5 9.88071 6.61929 11 8 11ZM8.75 2.25C8.75 1.83579 8.41421 1.5 8 1.5C7.58579 1.5 7.25 1.83579 7.25 2.25V3.55588C5.08901 3.88094 3.38094 5.58901 3.05588 7.75H1.75C1.33579 7.75 1 8.08579 1 8.5C1 8.91421 1.33579 9.25 1.75 9.25H3.05588C3.38094 11.411 5.08901 13.1191 7.25 13.4441V14.75C7.25 15.1642 7.58579 15.5 8 15.5C8.41421 15.5 8.75 15.1642 8.75 14.75V13.4441C10.911 13.1191 12.6191 11.411 12.9441 9.25H14.2498C14.664 9.25 14.9998 8.91421 14.9998 8.5C14.9998 8.08579 14.664 7.75 14.2498 7.75H12.9441C12.6191 5.58901 10.911 3.88094 8.75 3.55588V2.25ZM8 12C6.067 12 4.5 10.433 4.5 8.5C4.5 6.567 6.067 5 8 5C9.933 5 11.5 6.567 11.5 8.5C11.5 10.433 9.933 12 8 12Z" fill="#525252"/>
</svg>
