<svg width="15" height="15" viewBox="0 0 15 15" fill="none" xmlns="http://www.w3.org/2000/svg">
<path d="M6 0C9.03757 0 11.5 2.46243 11.5 5.5C11.5 6.74832 11.0841 7.89951 10.3834 8.82257L14.5303 12.9697C14.8232 13.2626 14.8232 13.7374 14.5303 14.0303C14.2641 14.2966 13.8474 14.3208 13.5538 14.1029L13.4697 14.0303L9.32257 9.88336C8.39951 10.5841 7.24832 11 6 11C2.96243 11 0.5 8.53757 0.5 5.5C0.5 2.46243 2.96243 0 6 0ZM6 1.5C3.79086 1.5 2 3.29086 2 5.5C2 7.70914 3.79086 9.5 6 9.5C8.20914 9.5 10 7.70914 10 5.5C10 3.29086 8.20914 1.5 6 1.5Z" fill="#414040"/>
</svg>
