<svg width="28" height="29" viewBox="0 0 28 29" fill="none" xmlns="http://www.w3.org/2000/svg">
<path d="M13.9987 2.83325C20.442 2.83325 25.6654 8.0566 25.6654 14.4999C25.6654 20.9432 20.442 26.1666 13.9987 26.1666C7.55538 26.1666 2.33203 20.9432 2.33203 14.4999C2.33203 8.0566 7.55538 2.83325 13.9987 2.83325ZM17.755 10.9645L12.5404 16.1791L10.2424 13.8812C9.90071 13.5395 9.34669 13.5395 9.00498 13.8812C8.66327 14.2229 8.66327 14.7769 9.00498 15.1186L11.9216 18.0353C12.2634 18.377 12.8174 18.377 13.1591 18.0353L18.9924 12.202C19.3341 11.8603 19.3341 11.3062 18.9924 10.9645C18.6507 10.6228 18.0967 10.6228 17.755 10.9645Z" fill="#348352"/>
</svg>
